<?xml version="1.0" encoding="UTF-8"?>
<svg width="2212px" height="868px" viewBox="0 0 1106 434" version="1.1" xmlns="http://www.w3.org/2000/svg" xmlns:xlink="http://www.w3.org/1999/xlink">
    <defs>
        <rect id="path-1" x="0" y="0" width="48" height="48"></rect>
        <mask id="mask-2" maskContentUnits="userSpaceOnUse" maskUnits="objectBoundingBox" x="-1" y="-1" width="50" height="50">
            <rect x="-1" y="-1" width="50" height="50" fill="white"></rect>
            <use xlink:href="#path-1" fill="black"></use>
        </mask>
        <rect id="path-3" x="0" y="0" width="48" height="48"></rect>
        <mask id="mask-4" maskContentUnits="userSpaceOnUse" maskUnits="objectBoundingBox" x="-1" y="-1" width="50" height="50">
            <rect x="-1" y="-1" width="50" height="50" fill="white"></rect>
            <use xlink:href="#path-3" fill="black"></use>
        </mask>
        <rect id="path-5" x="0" y="0" width="48" height="48"></rect>
        <mask id="mask-6" maskContentUnits="userSpaceOnUse" maskUnits="objectBoundingBox" x="-1" y="-1" width="50" height="50">
            <rect x="-1" y="-1" width="50" height="50" fill="white"></rect>
            <use xlink:href="#path-5" fill="black"></use>
        </mask>
        <rect id="path-7" x="0" y="0" width="48" height="48"></rect>
        <mask id="mask-8" maskContentUnits="userSpaceOnUse" maskUnits="objectBoundingBox" x="-1" y="-1" width="50" height="50">
            <rect x="-1" y="-1" width="50" height="50" fill="white"></rect>
            <use xlink:href="#path-7" fill="black"></use>
        </mask>
        <rect id="path-9" x="0" y="0" width="48" height="48"></rect>
        <mask id="mask-10" maskContentUnits="userSpaceOnUse" maskUnits="objectBoundingBox" x="-1" y="-1" width="50" height="50">
            <rect x="-1" y="-1" width="50" height="50" fill="white"></rect>
            <use xlink:href="#path-9" fill="black"></use>
        </mask>
        <rect id="path-11" x="0" y="0" width="48" height="48"></rect>
        <mask id="mask-12" maskContentUnits="userSpaceOnUse" maskUnits="objectBoundingBox" x="-1" y="-1" width="50" height="50">
            <rect x="-1" y="-1" width="50" height="50" fill="white"></rect>
            <use xlink:href="#path-11" fill="black"></use>
        </mask>
        <rect id="path-13" x="0" y="0" width="48" height="48"></rect>
        <mask id="mask-14" maskContentUnits="userSpaceOnUse" maskUnits="objectBoundingBox" x="-1" y="-1" width="50" height="50">
            <rect x="-1" y="-1" width="50" height="50" fill="white"></rect>
            <use xlink:href="#path-13" fill="black"></use>
        </mask>
        <rect id="path-15" x="0" y="0" width="48" height="48"></rect>
        <mask id="mask-16" maskContentUnits="userSpaceOnUse" maskUnits="objectBoundingBox" x="-1" y="-1" width="50" height="50">
            <rect x="-1" y="-1" width="50" height="50" fill="white"></rect>
            <use xlink:href="#path-15" fill="black"></use>
        </mask>
        <rect id="path-17" x="0" y="0" width="48" height="48"></rect>
        <mask id="mask-18" maskContentUnits="userSpaceOnUse" maskUnits="objectBoundingBox" x="-1" y="-1" width="50" height="50">
            <rect x="-1" y="-1" width="50" height="50" fill="white"></rect>
            <use xlink:href="#path-17" fill="black"></use>
        </mask>
        <rect id="path-19" x="0" y="0" width="48" height="48"></rect>
        <mask id="mask-20" maskContentUnits="userSpaceOnUse" maskUnits="objectBoundingBox" x="-1" y="-1" width="50" height="50">
            <rect x="-1" y="-1" width="50" height="50" fill="white"></rect>
            <use xlink:href="#path-19" fill="black"></use>
        </mask>
        <rect id="path-21" x="0" y="0" width="48" height="48"></rect>
        <mask id="mask-22" maskContentUnits="userSpaceOnUse" maskUnits="objectBoundingBox" x="-1" y="-1" width="50" height="50">
            <rect x="-1" y="-1" width="50" height="50" fill="white"></rect>
            <use xlink:href="#path-21" fill="black"></use>
        </mask>
        <rect id="path-23" x="0" y="0" width="48" height="48"></rect>
        <mask id="mask-24" maskContentUnits="userSpaceOnUse" maskUnits="objectBoundingBox" x="-1" y="-1" width="50" height="50">
            <rect x="-1" y="-1" width="50" height="50" fill="white"></rect>
            <use xlink:href="#path-23" fill="black"></use>
        </mask>
        <rect id="path-25" x="0" y="0" width="48" height="48"></rect>
        <mask id="mask-26" maskContentUnits="userSpaceOnUse" maskUnits="objectBoundingBox" x="-1" y="-1" width="50" height="50">
            <rect x="-1" y="-1" width="50" height="50" fill="white"></rect>
            <use xlink:href="#path-25" fill="black"></use>
        </mask>
        <rect id="path-27" x="0" y="0" width="48" height="48"></rect>
        <mask id="mask-28" maskContentUnits="userSpaceOnUse" maskUnits="objectBoundingBox" x="-1" y="-1" width="50" height="50">
            <rect x="-1" y="-1" width="50" height="50" fill="white"></rect>
            <use xlink:href="#path-27" fill="black"></use>
        </mask>
        <rect id="path-29" x="0" y="0" width="48" height="48"></rect>
        <mask id="mask-30" maskContentUnits="userSpaceOnUse" maskUnits="objectBoundingBox" x="-1" y="-1" width="50" height="50">
            <rect x="-1" y="-1" width="50" height="50" fill="white"></rect>
            <use xlink:href="#path-29" fill="black"></use>
        </mask>
        <rect id="path-31" x="0" y="0" width="48" height="48"></rect>
        <mask id="mask-32" maskContentUnits="userSpaceOnUse" maskUnits="objectBoundingBox" x="-1" y="-1" width="50" height="50">
            <rect x="-1" y="-1" width="50" height="50" fill="white"></rect>
            <use xlink:href="#path-31" fill="black"></use>
        </mask>
        <rect id="path-33" x="0" y="0" width="48" height="48"></rect>
        <mask id="mask-34" maskContentUnits="userSpaceOnUse" maskUnits="objectBoundingBox" x="-1" y="-1" width="50" height="50">
            <rect x="-1" y="-1" width="50" height="50" fill="white"></rect>
            <use xlink:href="#path-33" fill="black"></use>
        </mask>
        <rect id="path-35" x="0" y="0" width="48" height="48"></rect>
        <mask id="mask-36" maskContentUnits="userSpaceOnUse" maskUnits="objectBoundingBox" x="-1" y="-1" width="50" height="50">
            <rect x="-1" y="-1" width="50" height="50" fill="white"></rect>
            <use xlink:href="#path-35" fill="black"></use>
        </mask>
        <rect id="path-37" x="0" y="0" width="48" height="48"></rect>
        <mask id="mask-38" maskContentUnits="userSpaceOnUse" maskUnits="objectBoundingBox" x="-1" y="-1" width="50" height="50">
            <rect x="-1" y="-1" width="50" height="50" fill="white"></rect>
            <use xlink:href="#path-37" fill="black"></use>
        </mask>
        <rect id="path-39" x="0" y="0" width="48" height="48"></rect>
        <mask id="mask-40" maskContentUnits="userSpaceOnUse" maskUnits="objectBoundingBox" x="-1" y="-1" width="50" height="50">
            <rect x="-1" y="-1" width="50" height="50" fill="white"></rect>
            <use xlink:href="#path-39" fill="black"></use>
        </mask>
        <rect id="path-41" x="0" y="0" width="48" height="48"></rect>
        <mask id="mask-42" maskContentUnits="userSpaceOnUse" maskUnits="objectBoundingBox" x="-1" y="-1" width="50" height="50">
            <rect x="-1" y="-1" width="50" height="50" fill="white"></rect>
            <use xlink:href="#path-41" fill="black"></use>
        </mask>
        <rect id="path-43" x="0" y="0" width="48" height="48"></rect>
        <mask id="mask-44" maskContentUnits="userSpaceOnUse" maskUnits="objectBoundingBox" x="-1" y="-1" width="50" height="50">
            <rect x="-1" y="-1" width="50" height="50" fill="white"></rect>
            <use xlink:href="#path-43" fill="black"></use>
        </mask>
        <rect id="path-45" x="0" y="0" width="48" height="48"></rect>
        <mask id="mask-46" maskContentUnits="userSpaceOnUse" maskUnits="objectBoundingBox" x="-1" y="-1" width="50" height="50">
            <rect x="-1" y="-1" width="50" height="50" fill="white"></rect>
            <use xlink:href="#path-45" fill="black"></use>
        </mask>
        <rect id="path-47" x="0" y="0" width="48" height="48"></rect>
        <mask id="mask-48" maskContentUnits="userSpaceOnUse" maskUnits="objectBoundingBox" x="-1" y="-1" width="50" height="50">
            <rect x="-1" y="-1" width="50" height="50" fill="white"></rect>
            <use xlink:href="#path-47" fill="black"></use>
        </mask>
        <rect id="path-49" x="192" y="192" width="48" height="48"></rect>
        <mask id="mask-50" maskContentUnits="userSpaceOnUse" maskUnits="objectBoundingBox" x="-1" y="-1" width="50" height="50">
            <rect x="191" y="191" width="50" height="50" fill="white"></rect>
            <use xlink:href="#path-49" fill="black"></use>
        </mask>
        <rect id="path-51" x="0" y="0" width="48" height="48"></rect>
        <mask id="mask-52" maskContentUnits="userSpaceOnUse" maskUnits="objectBoundingBox" x="-1" y="-1" width="50" height="50">
            <rect x="-1" y="-1" width="50" height="50" fill="white"></rect>
            <use xlink:href="#path-51" fill="black"></use>
        </mask>
        <rect id="path-53" x="0" y="0" width="48" height="48"></rect>
        <mask id="mask-54" maskContentUnits="userSpaceOnUse" maskUnits="objectBoundingBox" x="-1" y="-1" width="50" height="50">
            <rect x="-1" y="-1" width="50" height="50" fill="white"></rect>
            <use xlink:href="#path-53" fill="black"></use>
        </mask>
        <rect id="path-55" x="0" y="0" width="48" height="48"></rect>
        <mask id="mask-56" maskContentUnits="userSpaceOnUse" maskUnits="objectBoundingBox" x="-1" y="-1" width="50" height="50">
            <rect x="-1" y="-1" width="50" height="50" fill="white"></rect>
            <use xlink:href="#path-55" fill="black"></use>
        </mask>
        <rect id="path-57" x="0" y="0" width="48" height="48"></rect>
        <mask id="mask-58" maskContentUnits="userSpaceOnUse" maskUnits="objectBoundingBox" x="-1" y="-1" width="50" height="50">
            <rect x="-1" y="-1" width="50" height="50" fill="white"></rect>
            <use xlink:href="#path-57" fill="black"></use>
        </mask>
        <rect id="path-59" x="0" y="0" width="48" height="48"></rect>
        <mask id="mask-60" maskContentUnits="userSpaceOnUse" maskUnits="objectBoundingBox" x="-1" y="-1" width="50" height="50">
            <rect x="-1" y="-1" width="50" height="50" fill="white"></rect>
            <use xlink:href="#path-59" fill="black"></use>
        </mask>
        <rect id="path-61" x="0" y="0" width="48" height="48"></rect>
        <mask id="mask-62" maskContentUnits="userSpaceOnUse" maskUnits="objectBoundingBox" x="-1" y="-1" width="50" height="50">
            <rect x="-1" y="-1" width="50" height="50" fill="white"></rect>
            <use xlink:href="#path-61" fill="black"></use>
        </mask>
        <rect id="path-63" x="0" y="0" width="48" height="48"></rect>
        <mask id="mask-64" maskContentUnits="userSpaceOnUse" maskUnits="objectBoundingBox" x="-1" y="-1" width="50" height="50">
            <rect x="-1" y="-1" width="50" height="50" fill="white"></rect>
            <use xlink:href="#path-63" fill="black"></use>
        </mask>
        <rect id="path-65" x="0" y="0" width="48" height="48"></rect>
        <mask id="mask-66" maskContentUnits="userSpaceOnUse" maskUnits="objectBoundingBox" x="-1" y="-1" width="50" height="50">
            <rect x="-1" y="-1" width="50" height="50" fill="white"></rect>
            <use xlink:href="#path-65" fill="black"></use>
        </mask>
        <rect id="path-67" x="0" y="0" width="48" height="48"></rect>
        <mask id="mask-68" maskContentUnits="userSpaceOnUse" maskUnits="objectBoundingBox" x="-1" y="-1" width="50" height="50">
            <rect x="-1" y="-1" width="50" height="50" fill="white"></rect>
            <use xlink:href="#path-67" fill="black"></use>
        </mask>
        <rect id="path-69" x="0" y="0" width="48" height="48"></rect>
        <mask id="mask-70" maskContentUnits="userSpaceOnUse" maskUnits="objectBoundingBox" x="-1" y="-1" width="50" height="50">
            <rect x="-1" y="-1" width="50" height="50" fill="white"></rect>
            <use xlink:href="#path-69" fill="black"></use>
        </mask>
        <rect id="path-71" x="0" y="0" width="48" height="48"></rect>
        <mask id="mask-72" maskContentUnits="userSpaceOnUse" maskUnits="objectBoundingBox" x="-1" y="-1" width="50" height="50">
            <rect x="-1" y="-1" width="50" height="50" fill="white"></rect>
            <use xlink:href="#path-71" fill="black"></use>
        </mask>
        <rect id="path-73" x="0" y="0" width="48" height="48"></rect>
        <mask id="mask-74" maskContentUnits="userSpaceOnUse" maskUnits="objectBoundingBox" x="-1" y="-1" width="50" height="50">
            <rect x="-1" y="-1" width="50" height="50" fill="white"></rect>
            <use xlink:href="#path-73" fill="black"></use>
        </mask>
        <rect id="path-75" x="0" y="0" width="48" height="48"></rect>
        <mask id="mask-76" maskContentUnits="userSpaceOnUse" maskUnits="objectBoundingBox" x="-1" y="-1" width="50" height="50">
            <rect x="-1" y="-1" width="50" height="50" fill="white"></rect>
            <use xlink:href="#path-75" fill="black"></use>
        </mask>
        <rect id="path-77" x="0" y="0" width="48" height="48"></rect>
        <mask id="mask-78" maskContentUnits="userSpaceOnUse" maskUnits="objectBoundingBox" x="-1" y="-1" width="50" height="50">
            <rect x="-1" y="-1" width="50" height="50" fill="white"></rect>
            <use xlink:href="#path-77" fill="black"></use>
        </mask>
        <rect id="path-79" x="0" y="0" width="48" height="48"></rect>
        <mask id="mask-80" maskContentUnits="userSpaceOnUse" maskUnits="objectBoundingBox" x="-1" y="-1" width="50" height="50">
            <rect x="-1" y="-1" width="50" height="50" fill="white"></rect>
            <use xlink:href="#path-79" fill="black"></use>
        </mask>
        <rect id="path-81" x="0" y="0" width="48" height="48"></rect>
        <mask id="mask-82" maskContentUnits="userSpaceOnUse" maskUnits="objectBoundingBox" x="-1" y="-1" width="50" height="50">
            <rect x="-1" y="-1" width="50" height="50" fill="white"></rect>
            <use xlink:href="#path-81" fill="black"></use>
        </mask>
        <rect id="path-83" x="0" y="0" width="48" height="48"></rect>
        <mask id="mask-84" maskContentUnits="userSpaceOnUse" maskUnits="objectBoundingBox" x="-1" y="-1" width="50" height="50">
            <rect x="-1" y="-1" width="50" height="50" fill="white"></rect>
            <use xlink:href="#path-83" fill="black"></use>
        </mask>
        <rect id="path-85" x="0" y="0" width="48" height="48"></rect>
        <mask id="mask-86" maskContentUnits="userSpaceOnUse" maskUnits="objectBoundingBox" x="-1" y="-1" width="50" height="50">
            <rect x="-1" y="-1" width="50" height="50" fill="white"></rect>
            <use xlink:href="#path-85" fill="black"></use>
        </mask>
        <rect id="path-87" x="0" y="0" width="48" height="48"></rect>
        <mask id="mask-88" maskContentUnits="userSpaceOnUse" maskUnits="objectBoundingBox" x="-1" y="-1" width="50" height="50">
            <rect x="-1" y="-1" width="50" height="50" fill="white"></rect>
            <use xlink:href="#path-87" fill="black"></use>
        </mask>
        <rect id="path-89" x="0" y="0" width="48" height="48"></rect>
        <mask id="mask-90" maskContentUnits="userSpaceOnUse" maskUnits="objectBoundingBox" x="-1" y="-1" width="50" height="50">
            <rect x="-1" y="-1" width="50" height="50" fill="white"></rect>
            <use xlink:href="#path-89" fill="black"></use>
        </mask>
        <rect id="path-91" x="0" y="0" width="48" height="48"></rect>
        <mask id="mask-92" maskContentUnits="userSpaceOnUse" maskUnits="objectBoundingBox" x="-1" y="-1" width="50" height="50">
            <rect x="-1" y="-1" width="50" height="50" fill="white"></rect>
            <use xlink:href="#path-91" fill="black"></use>
        </mask>
        <rect id="path-93" x="0" y="0" width="48" height="48"></rect>
        <mask id="mask-94" maskContentUnits="userSpaceOnUse" maskUnits="objectBoundingBox" x="-1" y="-1" width="50" height="50">
            <rect x="-1" y="-1" width="50" height="50" fill="white"></rect>
            <use xlink:href="#path-93" fill="black"></use>
        </mask>
        <rect id="path-95" x="0" y="0" width="48" height="48"></rect>
        <mask id="mask-96" maskContentUnits="userSpaceOnUse" maskUnits="objectBoundingBox" x="-1" y="-1" width="50" height="50">
            <rect x="-1" y="-1" width="50" height="50" fill="white"></rect>
            <use xlink:href="#path-95" fill="black"></use>
        </mask>
        <rect id="path-97" x="0" y="0" width="48" height="48"></rect>
        <mask id="mask-98" maskContentUnits="userSpaceOnUse" maskUnits="objectBoundingBox" x="-1" y="-1" width="50" height="50">
            <rect x="-1" y="-1" width="50" height="50" fill="white"></rect>
            <use xlink:href="#path-97" fill="black"></use>
        </mask>
        <rect id="path-99" x="0" y="0" width="48" height="48"></rect>
        <mask id="mask-100" maskContentUnits="userSpaceOnUse" maskUnits="objectBoundingBox" x="-1" y="-1" width="50" height="50">
            <rect x="-1" y="-1" width="50" height="50" fill="white"></rect>
            <use xlink:href="#path-99" fill="black"></use>
        </mask>
        <rect id="path-101" x="0" y="0" width="48" height="48"></rect>
        <mask id="mask-102" maskContentUnits="userSpaceOnUse" maskUnits="objectBoundingBox" x="-1" y="-1" width="50" height="50">
            <rect x="-1" y="-1" width="50" height="50" fill="white"></rect>
            <use xlink:href="#path-101" fill="black"></use>
        </mask>
        <rect id="path-103" x="0" y="0" width="48" height="48"></rect>
        <mask id="mask-104" maskContentUnits="userSpaceOnUse" maskUnits="objectBoundingBox" x="-1" y="-1" width="50" height="50">
            <rect x="-1" y="-1" width="50" height="50" fill="white"></rect>
            <use xlink:href="#path-103" fill="black"></use>
        </mask>
        <rect id="path-105" x="0" y="0" width="48" height="48"></rect>
        <mask id="mask-106" maskContentUnits="userSpaceOnUse" maskUnits="objectBoundingBox" x="-1" y="-1" width="50" height="50">
            <rect x="-1" y="-1" width="50" height="50" fill="white"></rect>
            <use xlink:href="#path-105" fill="black"></use>
        </mask>
    </defs>
    <g id="页面-1" stroke="none" stroke-width="1" fill="none" fill-rule="evenodd">
        <g id="看见音乐-for-Android" transform="translate(-87.000000, -5567.000000)">
            <g id="Group" transform="translate(88.000000, 5568.000000)">
                <g id="ic_action_close">
                    <use id="base" stroke-opacity="0.240658967" stroke="#FFFFFF" mask="url(#mask-2)" stroke-width="2" stroke-dasharray="8,8" xlink:href="#path-1"></use>
                    <polygon id="Page-1" fill="#FFFFFF" points="38.586 8 24 22.586 9.416 8 8 9.414 22.586 24 8 38.586 9.416 40 24 25.416 38.586 40 40 38.586 25.416 24 40 9.414"></polygon>
                </g>
                <g id="ic_action_back" transform="translate(96.000000, 0.000000)">
                    <use id="base" stroke-opacity="0.240658967" stroke="#FFFFFF" mask="url(#mask-4)" stroke-width="2" stroke-dasharray="8,8" xlink:href="#path-3"></use>
                    <polygon id="Page-1" fill="#FFFFFF" points="20 6 2 24 20 42 21.414 40.586 5.828 25 46 25 46 23 5.828 23 21.414 7.414"></polygon>
                </g>
                <g id="ic_action_search" transform="translate(192.000000, 0.000000)">
                    <use id="base" stroke-opacity="0.240658967" stroke="#FFFFFF" mask="url(#mask-6)" stroke-width="2" stroke-dasharray="8,8" xlink:href="#path-5"></use>
                    <path d="M20,34 C12.28,34 6,27.72 6,20 C6,12.28 12.28,6 20,6 C27.72,6 34,12.28 34,20 C34,27.72 27.72,34 20,34 L20,34 Z M44,42.586 L31.988,30.572 C34.476,27.752 36,24.058 36,20 C36,11.164 28.836,4 20,4 C11.164,4 4,11.164 4,20 C4,28.836 11.164,36 20,36 C24.058,36 27.752,34.476 30.572,31.988 L42.586,44 L44,42.586 Z" id="Page-1" fill="#FFFFFF"></path>
                </g>
                <g id="ic_action_share" transform="translate(288.000000, 0.000000)">
                    <use id="base" stroke-opacity="0.240658967" stroke="#FFFFFF" mask="url(#mask-8)" stroke-width="2" stroke-dasharray="8,8" xlink:href="#path-7"></use>
                    <path d="M28,6 L28,8 L38.586,8 L20.294,26.294 L21.708,27.706 L40,9.414 L40,20 L42,20 L42,6 L28,6 Z M6,6 L6,42 L42,42 L42,28 L40,28 L40,40 L8,40 L8,8 L20,8 L20,6 L6,6 Z" id="Page-1" fill="#FFFFFF"></path>
                </g>
                <g id="ic_common_download" transform="translate(384.000000, 0.000000)">
                    <use id="base" stroke-opacity="0.240658967" stroke="#FFFFFF" mask="url(#mask-10)" stroke-width="2" stroke-dasharray="8,8" xlink:href="#path-9"></use>
                    <path d="M25,30 L23,30 L23,40 L18,40 L24,46 L30,40 L25,40 L25,30 Z M46,22.624 C46,27.8 41.894,32 36.834,32 L29,32 L29,30 L36.834,30 C40.786,30 44,26.692 44,22.624 C44,18.794 41.072,15.584 37.334,15.32 L35.802,15.212 L35.512,13.704 C34.428,8.08 29.586,4 24,4 C19.616,4 15.626,6.484 13.59,10.482 L13.1,11.446 L12.024,11.564 C7.45,12.06 4,16.01 4,20.75 C4,25.85 8.038,30 13,30 L19,30 L19,32 L13,32 C6.932,32 2,26.956 2,20.75 C2,14.956 6.29,10.174 11.808,9.574 C14.1,5.074 18.702,2 24,2 C30.674,2 36.228,6.856 37.474,13.324 C42.242,13.662 46,17.674 46,22.624 L46,22.624 Z" id="Page-1" fill="#FFFFFF"></path>
                </g>
                <g id="ic_common_downloaded" transform="translate(480.000000, 0.000000)">
                    <use id="base" stroke-opacity="0.240658967" stroke="#FFFFFF" mask="url(#mask-12)" stroke-width="2" stroke-dasharray="8,8" xlink:href="#path-11"></use>
                    <path d="M25,30 L23,30 L23,40 L18,40 L24,46 L30,40 L25,40 L25,30 Z M19,30 L13,30 C8.038,30 4,25.85 4,20.75 C4,16.01 7.45,12.06 12.024,11.564 L13.1,11.446 L13.59,10.482 C15.626,6.484 19.616,4 24,4 C25.154,4 26.264,4.212 27.328,4.538 C27.65,3.912 28.028,3.32 28.45,2.764 C27.054,2.274 25.56,2 24,2 C18.702,2 14.1,5.074 11.808,9.574 C6.29,10.174 2,14.956 2,20.75 C2,26.956 6.932,32 13,32 L19,32 L19,30 Z M45.42,19.412 C45.782,20.416 46,21.49 46,22.624 C46,27.8 41.894,32 36.834,32 L29,32 L29,30 L36.834,30 C40.786,30 44,26.692 44,22.624 C44,21.908 43.868,21.226 43.676,20.568 C44.294,20.236 44.874,19.844 45.42,19.412 Z M42.2934,6.3128 L42.9994,7.0208 L36.3334,13.6868 L32.9994,10.3528 L33.7074,9.6468 L36.3334,12.2728 L42.2934,6.3128 Z M37.9994,2.0008 C33.5814,2.0008 29.9994,5.5808 29.9994,10.0008 C29.9994,14.4188 33.5814,18.0008 37.9994,18.0008 C42.4174,18.0008 45.9994,14.4188 45.9994,10.0008 C45.9994,5.5808 42.4174,2.0008 37.9994,2.0008 L37.9994,2.0008 Z" id="Fill-1" fill="#FFFFFF"></path>
                </g>
                <g id="ic_common_favorite" transform="translate(576.000000, 0.000000)">
                    <use id="base" stroke-opacity="0.240658967" stroke="#FFFFFF" mask="url(#mask-14)" stroke-width="2" stroke-dasharray="8,8" xlink:href="#path-13"></use>
                    <path d="M24,0 L17.258,16.052 L0,17.528 L13.104,28.98 L9.168,46 L24,36.97 L38.832,46 L34.898,28.98 L48.002,17.528 L30.744,16.052 L24,0 Z M15.054,29.432 L15.324,28.264 L14.42,27.476 L4.86,19.12 L17.426,18.044 L18.632,17.942 L19.1,16.828 L24,5.164 L28.902,16.828 L29.37,17.942 L30.574,18.044 L43.14,19.12 L33.58,27.476 L32.678,28.264 L32.948,29.432 L35.814,41.822 L25.04,35.262 L24,34.63 L22.962,35.262 L12.188,41.822 L15.054,29.432 Z" id="Page-1" fill="#FFFFFF"></path>
                </g>
                <g id="ic_common_favorited" transform="translate(672.000000, 0.000000)">
                    <use id="base" stroke-opacity="0.240658967" stroke="#FFFFFF" mask="url(#mask-16)" stroke-width="2" stroke-dasharray="8,8" xlink:href="#path-15"></use>
                    <polygon id="Page-1" fill="#FFFFFF" points="24 0 17.258 16.052 0 17.528 13.104 28.98 9.168 46 24 36.97 38.832 46 34.898 28.98 48.002 17.528 30.744 16.052"></polygon>
                </g>
                <g id="ic_common_like" transform="translate(768.000000, 0.000000)">
                    <use id="base" stroke-opacity="0.240658967" stroke="#FFFFFF" mask="url(#mask-18)" stroke-width="2" stroke-dasharray="8,8" xlink:href="#path-17"></use>
                    <path d="M33.131029,8 C29.925029,8 26.587029,9.672 23.999029,13.698 C21.411029,9.672 18.075029,8 14.871029,8 C9.53502896,8 4.57102896,12.636 4.05102896,18.714 C3.00502896,30.972 18.323029,41.088 23.999029,44 C29.679029,41.088 44.997029,30.972 43.947029,18.714 C43.431029,12.636 38.467029,8 33.131029,8 M33.131029,10 C37.581029,10 41.539029,13.984 41.955029,18.884 C42.803029,28.8 31.067029,37.872 23.999029,41.736 C16.933029,37.872 5.19702896,28.796 6.04302896,18.884 C6.46302896,13.986 10.423029,10 14.871029,10 C17.731029,10 20.307029,11.652 22.317029,14.78 L25.681029,14.78 C27.691029,11.652 30.267029,10 33.131029,10" id="Page-1" fill="#FFFFFF"></path>
                </g>
                <g id="ic_common_liked" transform="translate(864.000000, 0.000000)">
                    <use id="base" stroke-opacity="0.240658967" stroke="#FFFFFF" mask="url(#mask-20)" stroke-width="2" stroke-dasharray="8,8" xlink:href="#path-19"></use>
                    <path d="M33.131029,8 C29.925029,8 26.587029,9.672 23.999029,13.698 C21.411029,9.672 18.075029,8 14.871029,8 C9.53502896,8 4.57102896,12.636 4.05102896,18.714 C3.00502896,30.972 18.323029,41.088 23.999029,44 C29.679029,41.088 44.997029,30.972 43.947029,18.714 C43.431029,12.636 38.467029,8 33.131029,8" id="Page-1" fill="#FFFFFF"></path>
                </g>
                <g id="ic_common_help" transform="translate(960.000000, 0.000000)">
                    <use id="base" stroke-opacity="0.240658967" stroke="#FFFFFF" mask="url(#mask-22)" stroke-width="2" stroke-dasharray="8,8" xlink:href="#path-21"></use>
                    <path d="M25,32 L23,32 L23,34 L25,34 L25,32 Z M25.002,29.504 C25.002,27.632 25.848,25.934 27.21,25.072 C29.424,23.67 30.466,20.996 29.802,18.418 C29.274,16.384 27.62,14.73 25.586,14.204 C23.72,13.72 21.81,14.108 20.33,15.254 C18.85,16.4 18,18.13 18,20 L20,20 C20,18.754 20.568,17.6 21.554,16.836 C22.544,16.07 23.83,15.82 25.084,16.14 C26.426,16.488 27.518,17.578 27.864,18.918 C28.318,20.68 27.642,22.432 26.14,23.382 C24.204,24.608 23.002,26.954 23.002,29.504 L23.002,30 L25.002,30 L25.002,29.504 Z M24,2 C11.85,2 2,11.85 2,24 C2,36.15 11.85,46 24,46 C36.15,46 46,36.15 46,24 C46,11.85 36.15,2 24,2 L24,2 Z M24,4 C35.028,4 44,12.972 44,24 C44,35.028 35.028,44 24,44 C12.972,44 4,35.028 4,24 C4,12.972 12.972,4 24,4 L24,4 Z" id="Page-1" fill="#FFFFFF"></path>
                </g>
                <g id="ic_common_warn" transform="translate(1056.000000, 0.000000)">
                    <use id="base" stroke-opacity="0.240658967" stroke="#FFFFFF" mask="url(#mask-24)" stroke-width="2" stroke-dasharray="8,8" xlink:href="#path-23"></use>
                    <path d="M25,32 L23,32 L23,34 L25,34 L25,32 Z M25,14 L23,14 L23,30 L25,30 L25,14 Z M24,2 C11.85,2 2,11.85 2,24 C2,36.15 11.85,46 24,46 C36.15,46 46,36.15 46,24 C46,11.85 36.15,2 24,2 L24,2 Z M24,4 C35.028,4 44,12.972 44,24 C44,35.028 35.028,44 24,44 C12.972,44 4,35.028 4,24 C4,12.972 12.972,4 24,4 L24,4 Z" id="Page-1" fill="#FFFFFF"></path>
                </g>
                <g id="ic_common_refresh" transform="translate(0.000000, 96.000000)">
                    <use id="base" stroke-opacity="0.240658967" stroke="#FFFFFF" mask="url(#mask-26)" stroke-width="2" stroke-dasharray="8,8" xlink:href="#path-25"></use>
                    <path d="M41.882,26 C40.882,34.986 33.248,42 24,42 C14.074,42 6,33.926 6,24 C6,14.074 14.074,6 24,6 C28.962,6 33.462,8.018 36.722,11.278 L32,16 L42,16 L42,6 L38.142,9.858 C34.522,6.238 29.522,4 24,4 C12.954,4 4,12.954 4,24 C4,35.046 12.954,44 24,44 C34.37,44 42.896,36.106 43.898,26 L41.882,26 Z" id="Page-1" fill="#FFFFFF"></path>
                </g>
                <g id="ic_common_picture" transform="translate(288.000000, 96.000000)">
                    <use id="base" stroke-opacity="0.240658967" stroke="#FFFFFF" mask="url(#mask-28)" stroke-width="2" stroke-dasharray="8,8" xlink:href="#path-27"></use>
                    <path d="M10,38 L44,38 L44,4 L10,4 L10,38 Z M12,6 L42,6 L42,36 L12,36 L12,6 Z M4,10 L4,44 L38,44 L38,42 L6,42 L6,10 L4,10 Z M27,31 L22,26 L14,34 L16.828,34 L22,28.828 L27,33.828 L40,20.828 L40,18 L27,31 Z" id="Page-1" fill="#FFFFFF"></path>
                </g>
                <g id="ic_common_comment" transform="translate(384.000000, 96.000000)">
                    <use id="base" stroke-opacity="0.240658967" stroke="#FFFFFF" mask="url(#mask-30)" stroke-width="2" stroke-dasharray="8,8" xlink:href="#path-29"></use>
                    <path d="M4,4 L4,44 L14,36 L44,36 L44,4 L4,4 Z M6,6 L42,6 L42,33.998 L13.298,33.998 L6,39.838 L6,6 Z M14,15.998 L34,15.998 L34,13.998 L14,13.998 L14,15.998 Z M14,26 L34,26 L34,24 L14,24 L14,26 Z" id="Page-1" fill="#FFFFFF"></path>
                </g>
                <g id="ic_common_comment_number" transform="translate(480.000000, 96.000000)">
                    <use id="base" stroke-opacity="0.240658967" stroke="#FFFFFF" mask="url(#mask-32)" stroke-width="2" stroke-dasharray="8,8" xlink:href="#path-31"></use>
                    <path d="M4,4 L4,44 L14,36 L44,36 L44,4 L4,4 Z M44,4 L44,20 L42,20 L42,33.998 L13.298,33.998 L6,39.838 L6,6 L28,6 L28,4 L44,4 Z M14,15.998 L28,15.998 L28,13.998 L14,13.998 L14,15.998 Z M14,26 L34,26 L34,24 L14,24 L14,26 Z" id="Page-1" fill="#FFFFFF"></path>
                </g>
                <g id="ic_common_person" transform="translate(576.000000, 96.000000)">
                    <use id="base" stroke-opacity="0.240658967" stroke="#FFFFFF" mask="url(#mask-34)" stroke-width="2" stroke-dasharray="8,8" xlink:href="#path-33"></use>
                    <path d="M24,27 C17.326,27 6,30.35 6,37 L6,44 L42,44 L42,37 C42,30.35 30.676,27 24,27 M24,4 C18.476,4 14,8.476 14,14 C14,19.524 18.476,24 24,24 C29.524,24 34,19.524 34,14 C34,8.476 29.524,4 24,4 M24,29 C30.37,29 40,32.19 40,37 L40,42 L8,42 L8,37 C8,32.19 17.63,29 24,29 M24,6 C28.412,6 32,9.588 32,14 C32,18.412 28.412,22 24,22 C19.588,22 16,18.412 16,14 C16,9.588 19.588,6 24,6" id="Page-1" fill="#FFFFFF"></path>
                </g>
                <g id="ic_common_follow" transform="translate(672.000000, 96.000000)">
                    <use id="base" stroke-opacity="0.240658967" stroke="#FFFFFF" mask="url(#mask-36)" stroke-width="2" stroke-dasharray="8,8" xlink:href="#path-35"></use>
                    <path d="M18,22 L10,22 L10,14 L8,14 L8,22 L0,22 L0,24 L8,24 L8,32 L10,32 L10,24 L18,24 L18,22 Z M30,27 C23.326,27 12,30.35 12,37 L12,44 L48,44 L48,37 C48,30.35 36.674,27 30,27 L30,27 Z M30,4 C24.476,4 20,8.476 20,14 C20,19.524 24.476,24 30,24 C35.524,24 40,19.524 40,14 C40,8.476 35.524,4 30,4 L30,4 Z M30,29 C36.37,29 46,32.19 46,37 L46,42 L14,42 L14,37 C14,32.19 23.63,29 30,29 L30,29 Z M30,6 C34.412,6 38,9.588 38,14 C38,18.412 34.412,22 30,22 C25.588,22 22,18.412 22,14 C22,9.588 25.588,6 30,6 L30,6 Z" id="Page-1" fill="#FFFFFF"></path>
                </g>
                <g id="ic_common_followed" transform="translate(768.000000, 96.000000)">
                    <use id="base" stroke-opacity="0.240658967" stroke="#FFFFFF" mask="url(#mask-38)" stroke-width="2" stroke-dasharray="8,8" xlink:href="#path-37"></use>
                    <path d="M6,28.878 L1.414,24.292 L0,25.706 L6,31.706 L18,19.706 L16.586,18.292 L6,28.878 Z M30,27 C23.326,27 12,30.35 12,37 L12,44 L48,44 L48,37 C48,30.35 36.674,27 30,27 L30,27 Z M30,4 C24.476,4 20,8.474 20,14 C20,19.524 24.476,24 30,24 C35.524,24 40,19.524 40,14 C40,8.474 35.524,4 30,4 L30,4 Z M30,29 C36.37,29 46,32.19 46,37 L46,42 L14,42 L14,37 C14,32.19 23.63,29 30,29 L30,29 Z M30,6 C34.412,6 38,9.588 38,14 C38,18.41 34.412,22 30,22 C25.588,22 22,18.41 22,14 C22,9.588 25.588,6 30,6 L30,6 Z" id="Fill-1" fill="#FFFFFF"></path>
                </g>
                <g id="ic_common_relation" transform="translate(864.000000, 96.000000)">
                    <use id="base" stroke-opacity="0.240658967" stroke="#FFFFFF" mask="url(#mask-40)" stroke-width="2" stroke-dasharray="8,8" xlink:href="#path-39"></use>
                    <path d="M33.864,27.316 C35.13,28.12 36.264,29.04 37.204,30.076 C41.852,31.394 46,33.846 46,37 L46,42 L40,42 L40,44 L48,44 L48,37 C48,31.518 40.308,28.284 33.864,27.316 M29.51,6.05 C29.676,6.04 29.832,6 30,6 C34.412,6 38,9.59 38,14 C38,18.412 34.412,22 30,22 C29.828,22 29.668,21.96 29.5,21.95 C29.044,22.608 28.532,23.222 27.972,23.794 C28.626,23.928 29.304,24 30,24 C35.526,24 40,19.526 40,14 C40,8.476 35.526,4 30,4 C29.31,4 28.636,4.07 27.984,4.204 C28.544,4.774 29.054,5.392 29.51,6.05 M18,27 C11.326,27 0,30.35 0,37 L0,44 L36,44 L36,37 C36,30.35 24.676,27 18,27 M18,4 C12.476,4 8,8.476 8,14 C8,19.526 12.476,24 18,24 C23.526,24 28,19.526 28,14 C28,8.476 23.526,4 18,4 M18,29 C24.37,29 34,32.192 34,37 L34,42 L2,42 L2,37 C2,32.192 11.63,29 18,29 M18,6 C22.412,6 26,9.59 26,14 C26,18.412 22.412,22 18,22 C13.588,22 10,18.412 10,14 C10,9.59 13.588,6 18,6" id="Fill-1" fill="#FFFFFF"></path>
                </g>
                <g id="ic_common_settings" transform="translate(960.000000, 96.000000)">
                    <use id="base" stroke-opacity="0.240658967" stroke="#FFFFFF" mask="url(#mask-42)" stroke-width="2" stroke-dasharray="8,8" xlink:href="#path-41"></use>
                    <path d="M24,16 C19.582,16 16,19.582 16,24 C16,28.418 19.582,32 24,32 C28.418,32 32,28.418 32,24 C32,19.582 28.418,16 24,16 L24,16 Z M24,18 C27.308,18 30,20.692 30,24 C30,27.308 27.308,30 24,30 C20.692,30 18,27.308 18,24 C18,20.692 20.692,18 24,18 L24,18 Z M28,2 L20,2 L18.746,8.902 C18.16,9.104 17.594,9.342 17.042,9.61 L11.272,5.616 L5.616,11.272 L9.61,17.042 C9.342,17.594 9.104,18.16 8.902,18.746 L2,20 L2,28 L8.902,29.254 C9.104,29.84 9.342,30.406 9.61,30.958 L5.616,36.728 L11.272,42.384 L17.042,38.39 C17.594,38.658 18.16,38.896 18.746,39.098 L20,46 L28,46 L29.254,39.098 C29.84,38.896 30.406,38.658 30.958,38.39 L36.728,42.384 L42.384,36.728 L38.39,30.958 C38.658,30.406 38.896,29.84 39.098,29.254 L46,28 L46,20 L39.098,18.746 C38.896,18.16 38.658,17.594 38.39,17.042 L42.384,11.272 L36.728,5.616 L30.958,9.61 C30.406,9.342 29.84,9.104 29.254,8.902 L28,2 Z M26.33,4 L27.288,9.258 L27.496,10.406 L28.598,10.79 C29.096,10.964 29.596,11.172 30.086,11.41 L31.138,11.918 L32.098,11.254 L36.494,8.21 L39.79,11.506 L36.746,15.902 L36.082,16.862 L36.59,17.914 C36.828,18.404 37.036,18.904 37.21,19.402 L37.594,20.504 L38.742,20.712 L44,21.67 L44,26.33 L38.742,27.288 L37.594,27.496 L37.21,28.598 C37.036,29.096 36.828,29.596 36.59,30.086 L36.082,31.138 L36.746,32.098 L39.79,36.494 L36.494,39.79 L32.098,36.746 L31.138,36.082 L30.086,36.59 C29.596,36.828 29.096,37.036 28.598,37.21 L27.496,37.594 L27.288,38.742 L26.33,44 L21.67,44 L20.712,38.742 L20.504,37.594 L19.402,37.21 C18.904,37.036 18.404,36.828 17.914,36.59 L16.862,36.082 L15.902,36.746 L11.506,39.79 L8.21,36.494 L11.254,32.098 L11.918,31.138 L11.41,30.086 C11.172,29.596 10.964,29.096 10.79,28.598 L10.406,27.496 L9.258,27.288 L4,26.33 L4,21.67 L9.258,20.712 L10.406,20.504 L10.79,19.402 C10.964,18.904 11.172,18.404 11.41,17.914 L11.918,16.862 L11.254,15.902 L8.21,11.506 L11.506,8.21 L15.902,11.254 L16.862,11.918 L17.914,11.41 C18.404,11.172 18.904,10.964 19.402,10.79 L20.504,10.406 L20.712,9.258 L21.67,4 L26.33,4 L26.33,4 Z" id="Page-1" fill="#FFFFFF"></path>
                </g>
                <g id="ic_common_playlist" transform="translate(1056.000000, 96.000000)">
                    <use id="base" stroke-opacity="0.240658967" stroke="#FFFFFF" mask="url(#mask-44)" stroke-width="2" stroke-dasharray="8,8" xlink:href="#path-43"></use>
                    <path d="M4,26 L16,26 L16,28 L4,28 L4,26 Z M24,22 L4,22 L4,20 L24,20 L24,22 Z M28,16 L4,16 L4,14 L28,14 L28,16 Z M28,10 L4,10 L4,8 L28,8 L28,10 Z M26,42 C22.692,42 20,39.308 20,36 C20,32.692 22.692,30 26,30 C29.308,30 32,32.692 32,36 C32,39.308 29.308,42 26,42 L26,42 Z M44,8 L32,8 L32,30.76 C30.534,29.082 28.404,28 26,28 C21.582,28 18,31.582 18,36 C18,40.418 21.582,44 26,44 C30.418,44 34,40.418 34,36 L34,10 L44,10 L44,8 Z" id="Page-1" fill="#FFFFFF"></path>
                </g>
                <g id="ic_common_add2pick" transform="translate(0.000000, 192.000000)">
                    <use id="base" stroke-opacity="0.240658967" stroke="#FFFFFF" mask="url(#mask-46)" stroke-width="2" stroke-dasharray="8,8" xlink:href="#path-45"></use>
                    <path d="M30,6 L30,16 L20.002,16 L20.002,18 L30,18 L30,28 L32,28 L32,18 L42,18 L42,16 L32,16 L32,6 L30,6 Z M6,6 L6,42 L42,42 L42,28 L40,28 L40,40 L8,40 L8,8 L20.002,8 L20.002,6 L6,6 Z" id="Page-1" fill="#FFFFFF"></path>
                </g>
                <g id="ic_common_list" transform="translate(96.000000, 192.000000)">
                    <use id="base" stroke-opacity="0.240658967" stroke="#FFFFFF" mask="url(#mask-48)" stroke-width="2" stroke-dasharray="8,8" xlink:href="#path-47"></use>
                    <path d="M14,15 L42,15 L42,13 L14,13 L14,15 Z M6,15 L10,15 L10,13 L6,13 L6,15 Z M14,25 L42,25 L42,23 L14,23 L14,25 Z M6,25 L10,25 L10,23 L6,23 L6,25 Z M14,35 L42,35 L42,33 L14,33 L14,35 Z M6,35 L10,35 L10,33 L6,33 L6,35 Z" id="Page-1" fill="#FFFFFF"></path>
                </g>
                <use id="base" stroke-opacity="0.240658967" stroke="#FFFFFF" mask="url(#mask-50)" stroke-width="2" stroke-dasharray="8,8" xlink:href="#path-49"></use>
                <path d="M234,202.308 L212,205.692 L212,201.692 L234,198.308 L234,202.308 Z M228,230 C224.692,230 222,227.308 222,224 C222,220.692 224.692,218 228,218 C231.308,218 234,220.692 234,224 C234,227.308 231.308,230 228,230 L228,230 Z M204,234 C200.692,234 198,231.308 198,228 C198,224.692 200.692,222 204,222 C207.308,222 210,224.692 210,228 C210,231.308 207.308,234 204,234 L204,234 Z M210,200 L210,222.76 C208.534,221.082 206.404,220 204,220 C199.582,220 196,223.582 196,228 C196,232.418 199.582,236 204,236 C208.418,236 212,232.418 212,228 L212,207.692 L234,204.308 L234,218.76 C232.534,217.082 230.404,216 228,216 C223.582,216 220,219.582 220,224 C220,228.418 223.582,232 228,232 C232.418,232 236,228.418 236,224 L236,196 L210,200 Z" id="Fill-1" fill="#FFFFFF"></path>
                <g id="ic_common_profile" transform="translate(288.000000, 192.000000)">
                    <use id="base" stroke-opacity="0.240658967" stroke="#FFFFFF" mask="url(#mask-52)" stroke-width="2" stroke-dasharray="8,8" xlink:href="#path-51"></use>
                    <path d="M18,10 L42,10 L42,8 L18,8 L18,10 Z M10,10 L14,10 L14,8 L10,8 L10,10 Z M6,16 L42,16 L42,14 L6,14 L6,16 Z M6,22 L42,22 L42,20 L6,20 L6,22 Z M6,28 L42,28 L42,26 L6,26 L6,28 Z M6,34 L42,34 L42,32 L6,32 L6,34 Z M34,40 L38,40 L38,38 L34,38 L34,40 Z M6,40 L30,40 L30,38 L6,38 L6,40 Z" id="Page-1" fill="#FFFFFF"></path>
                </g>
                <g id="ic_common_pick" transform="translate(384.000000, 192.000000)">
                    <use id="base" stroke-opacity="0.240658967" stroke="#FFFFFF" mask="url(#mask-54)" stroke-width="2" stroke-dasharray="8,8" xlink:href="#path-53"></use>
                    <path d="M32,20 L42,20 L42,18 L32,18 L32,20 Z M32,14 L42,14 L42,12 L32,12 L32,14 Z M28,26 C28,22.692 25.308,20 22,20 C18.692,20 16,22.692 16,26 C16,29.308 18.692,32 22,32 C25.308,32 28,29.308 28,26 L28,26 Z M42,6 L42,8.222 L30,8.222 L30,26 C30,30.418 26.418,34 22,34 C17.582,34 14,30.418 14,26 C14,21.582 17.582,18 22,18 C24.404,18 26.534,19.082 28,20.76 L28,6 L42,6 Z M40,28 L42,28 L42,42 L6,42 L6,6 L20,6 L20,8 L8,8 L8,40 L40,40 L40,28 Z" id="Page-1" fill="#FFFFFF"></path>
                </g>
                <g id="ic_common_history" transform="translate(480.000000, 192.000000)">
                    <use id="base" stroke-opacity="0.240658967" stroke="#FFFFFF" mask="url(#mask-56)" stroke-width="2" stroke-dasharray="8,8" xlink:href="#path-55"></use>
                    <path d="M22,12 L22,24.414 L30.778,33.192 L32.192,31.778 L24,23.586 L24,12 L22,12 Z M44,24 C44,35.046 35.046,44 24,44 C18.478,44 13.478,41.762 9.858,38.142 L11.278,36.722 C14.538,39.982 19.038,42 24,42 C33.926,42 42,33.926 42,24 C42,14.074 33.926,6 24,6 C14.752,6 7.116,13.014 6.118,22 L10,22 L5,27 L0,22 L4.1,22 C5.104,11.894 13.63,4 24,4 C35.046,4 44,12.954 44,24 L44,24 Z" id="Page-1" fill="#FFFFFF"></path>
                </g>
                <g id="ic_common_message" transform="translate(576.000000, 192.000000)">
                    <use id="base" stroke-opacity="0.240658967" stroke="#FFFFFF" mask="url(#mask-58)" stroke-width="2" stroke-dasharray="8,8" xlink:href="#path-57"></use>
                    <path d="M4,40 L44,40 L44,8 L4,8 L4,40 Z M8.102,10 L39.9,10 L24,22.718 L8.102,10 Z M42,10.882 L42,38 L6,38 L6,10.882 L24,25.282 L42,10.882 Z" id="Page-1" fill="#FFFFFF"></path>
                </g>
                <g id="ic_common_template_simple" transform="translate(672.000000, 192.000000)">
                    <use id="base" stroke-opacity="0.240658967" stroke="#FFFFFF" mask="url(#mask-60)" stroke-width="2" stroke-dasharray="8,8" xlink:href="#path-59"></use>
                    <path d="M6,42 L42,42 L42,6 L6,6 L6,42 Z M8,8 L40,8 L40,40 L8,40 L8,8 Z M12,36 L36.002,36 L36.002,34 L12,34 L12,36 Z" id="Page-1" fill="#FFFFFF"></path>
                </g>
                <g id="ic_common_template_imagetext" transform="translate(768.000000, 192.000000)">
                    <use id="base" stroke-opacity="0.240658967" stroke="#FFFFFF" mask="url(#mask-62)" stroke-width="2" stroke-dasharray="8,8" xlink:href="#path-61"></use>
                    <path d="M6,30 L42,30 L42,6 L6,6 L6,30 Z M8,8 L40,8 L40,28 L8,28 L8,8 Z M6,36 L30,36 L30,34 L6,34 L6,36 Z M6,42 L42,42 L42,40 L6,40 L6,42 Z" id="Page-1" fill="#FFFFFF"></path>
                </g>
                <g id="ic_common_template_text" transform="translate(864.000000, 192.000000)">
                    <use id="base" stroke-opacity="0.240658967" stroke="#FFFFFF" mask="url(#mask-64)" stroke-width="2" stroke-dasharray="8,8" xlink:href="#path-63"></use>
                    <path d="M6,10 L30,10 L30,8 L6,8 L6,10 Z M6,16 L42,16 L42,14 L6,14 L6,16 Z M6,22 L30,22 L30,20 L6,20 L6,22 Z M6,28 L42,28 L42,26 L6,26 L6,28 Z M6,34 L30,34 L30,32 L6,32 L6,34 Z M6,40 L42,40 L42,38 L6,38 L6,40 Z" id="Page-1" fill="#FFFFFF"></path>
                </g>
                <g id="ic_common_play_outline" transform="translate(0.000000, 288.000000)">
                    <use id="base" stroke-opacity="0.240658967" stroke="#FFFFFF" mask="url(#mask-66)" stroke-width="2" stroke-dasharray="8,8" xlink:href="#path-65"></use>
                    <path d="M20,32 L32,24 L20,16 L20,32 Z M24,2 C11.85,2 2,11.85 2,24 C2,36.15 11.85,46 24,46 C36.15,46 46,36.15 46,24 C46,11.85 36.15,2 24,2 L24,2 Z M24,4 C35.028,4 44,12.972 44,24 C44,35.028 35.028,44 24,44 C12.972,44 4,35.028 4,24 C4,12.972 12.972,4 24,4 L24,4 Z" id="Page-1" fill="#FFFFFF"></path>
                </g>
                <g id="ic_common_pause_outline" transform="translate(96.000000, 288.000000)">
                    <use id="base" stroke-opacity="0.240658967" stroke="#FFFFFF" mask="url(#mask-68)" stroke-width="2" stroke-dasharray="8,8" xlink:href="#path-67"></use>
                    <path d="M30,16 L26,16 L26,32 L30,32 L30,16 Z M22,16 L18,16 L18,32 L22,32 L22,16 Z M24,2 C11.85,2 2,11.85 2,24 C2,36.15 11.85,46 24,46 C36.15,46 46,36.15 46,24 C46,11.85 36.15,2 24,2 L24,2 Z M24,4 C35.028,4 44,12.972 44,24 C44,35.028 35.028,44 24,44 C12.972,44 4,35.028 4,24 C4,12.972 12.972,4 24,4 L24,4 Z" id="Page-1" fill="#FFFFFF"></path>
                </g>
                <g id="ic_common_pause_outline-copy" transform="translate(192.000000, 288.000000)">
                    <use id="base" stroke-opacity="0.240658967" stroke="#FFFFFF" mask="url(#mask-70)" stroke-width="2" stroke-dasharray="8,8" xlink:href="#path-69"></use>
                    <path d="M30,18 L18,18 L18,30 L30,30 L30,18 Z M24,2 C11.85,2 2,11.85 2,24 C2,36.15 11.85,46 24,46 C36.15,46 46,36.15 46,24 C46,11.85 36.15,2 24,2 L24,2 Z M24,4 C35.028,4 44,12.972 44,24 C44,35.028 35.028,44 24,44 C12.972,44 4,35.028 4,24 C4,12.972 12.972,4 24,4 L24,4 Z" id="Page-1" fill="#FFFFFF"></path>
                </g>
                <g id="ic_common_playmode_shuffle" transform="translate(288.000000, 288.000000)">
                    <use id="base" stroke-opacity="0.240658967" stroke="#FFFFFF" mask="url(#mask-72)" stroke-width="2" stroke-dasharray="8,8" xlink:href="#path-71"></use>
                    <path d="M30,8 L30,10 L36.586,10 L8,38.586 L9.416,40 L38.002,11.414 L38.002,18 L40,18 L40,8 L30,8 Z M9.416,8 L8,9.414 L19.758,21.172 L21.172,19.758 L9.416,8 Z M26.828,28.242 L36.586,38 L30,38 L30,40 L40,40 L40,30 L38.002,30 L38.002,36.586 L28.244,26.828 L26.828,28.242 Z" id="Page-1" fill="#FFFFFF"></path>
                </g>
                <g id="ic_common_playmode_repeat" transform="translate(384.000000, 288.000000)">
                    <use id="base" stroke-opacity="0.240658967" stroke="#FFFFFF" mask="url(#mask-74)" stroke-width="2" stroke-dasharray="8,8" xlink:href="#path-73"></use>
                    <path d="M35,4 L33.586,5.412 L38.172,10 L10,10 L10,22 L12,22 L12,12 L38.172,12 L33.586,16.586 L35,18 L42,11 L35,4 Z M36,26 L36,36 L9.828,36 L14.416,31.414 L13,30 L6,37 L13,44 L14.416,42.584 L9.828,38 L38,38 L38,26 L36,26 Z" id="Page-1" fill="#FFFFFF"></path>
                </g>
                <g id="ic_common_playmode_repeatone" transform="translate(480.000000, 288.000000)">
                    <use id="base" stroke-opacity="0.240658967" stroke="#FFFFFF" mask="url(#mask-76)" stroke-width="2" stroke-dasharray="8,8" xlink:href="#path-75"></use>
                    <path d="M35,4 L33.586,5.412 L38.172,10 L10,10 L10,22 L12,22 L12,12 L38.172,12 L33.586,16.586 L35,18 L42,11 L35,4 Z M22,20 L22,22 L24,21 L24,30 L26,30 L26,18 L22,20 Z M36,26 L36,36 L9.828,36 L14.416,31.414 L13,30 L6,37 L13,44 L14.416,42.584 L9.828,38 L38,38 L38,26 L36,26 Z" id="Page-1" fill="#FFFFFF"></path>
                </g>
                <g id="ic_common_lyric" transform="translate(576.000000, 288.000000)">
                    <use id="base" stroke-opacity="0.240658967" stroke="#FFFFFF" mask="url(#mask-78)" stroke-width="2" stroke-dasharray="8,8" xlink:href="#path-77"></use>
                    <path d="M12.712,6 L10.978,7 L13.288,11 L15.022,10 L12.712,6 Z M20,8 L20,10 L40,10 L40,40 L34,40 L34,42 L42,42 L42,8 L20,8 Z M6,14 L20,14 L20,12 L6,12 L6,14 Z M21,16 L37,16 L37,13.998 L21,13.998 L21,16 Z M7,20 L18.998,20 L18.998,18 L7,18 L7,20 Z M23,20 L23,36 L25,36 L25,34 L35,34 L35,20 L23,20 Z M25,22 L33,22 L33,31.998 L25,31.998 L25,22 Z M7,26 L18.998,26 L18.998,24 L7,24 L7,26 Z M7,30 L7,42 L9,42 L9,40 L19,40 L19,30 L7,30 Z M9,32 L17,32 L17,38.002 L9,38.002 L9,32 Z" id="Page-1" fill="#FFFFFF"></path>
                </g>
                <g id="ic_common_location" transform="translate(960.000000, 288.000000)">
                    <use id="base" stroke-opacity="0.240658967" stroke="#FFFFFF" mask="url(#mask-80)" stroke-width="2" stroke-dasharray="8,8" xlink:href="#path-79"></use>
                    <path d="M24,0 C18.882,0 13.764,1.944 9.85,5.832 L9.85,5.832 C2.05,13.582 2.05,26.194 9.85,33.944 L24,48 L38.15,33.944 C45.95,26.194 45.95,13.582 38.15,5.832 L38.15,5.832 C34.236,1.944 29.118,0 24,0 M24,2 C28.806,2 33.332,3.864 36.74,7.252 C40.132,10.62 42,15.108 42,19.888 C42,24.668 40.132,29.156 36.74,32.526 L24,45.18 L11.26,32.526 C7.868,29.156 6,24.668 6,19.888 C6,15.108 7.868,10.62 11.26,7.252 C14.668,3.864 19.194,2 24,2 M24,13 C27.866,13 31,16.134 31,20 C31,23.866 27.866,27 24,27 C20.134,27 17,23.866 17,20 C17,16.134 20.134,13 24,13 Z M24,15 C21.244,15 19,17.242 19,20 C19,22.756 21.244,25 24,25 C26.758,25 29,22.756 29,20 C29,17.242 26.758,15 24,15 Z" id="Fill-1" fill="#FFFFFF"></path>
                </g>
                <g id="ic_common_show" transform="translate(1056.000000, 192.000000)">
                    <use id="base" stroke-opacity="0.240658967" stroke="#FFFFFF" mask="url(#mask-82)" stroke-width="2" stroke-dasharray="8,8" xlink:href="#path-81"></use>
                    <path d="M42,22 L40,22 C40,30.822 32.822,38 24,38 C15.178,38 8,30.822 8,22 L6,22 C6,31.604 13.526,39.428 23,39.95 L23,48 L25,48 L25,39.95 C34.474,39.428 42,31.604 42,22 M24,0 C17.372,0 12,5.372 12,12 L12,22 C12,28.628 17.372,34 24,34 C30.628,34 36,28.628 36,22 L36,12 C36,5.372 30.628,0 24,0 M24,2 C29.514,2 34,6.486 34,12 L34,22 C34,27.514 29.514,32 24,32 C18.486,32 14,27.514 14,22 L14,12 C14,6.486 18.486,2 24,2" id="Page-1" fill="#FFFFFF"></path>
                </g>
                <g id="ic_common_check_outline" transform="translate(960.000000, 192.000000)">
                    <use id="base" stroke-opacity="0.240658967" stroke="#FFFFFF" mask="url(#mask-84)" stroke-width="2" stroke-dasharray="8,8" xlink:href="#path-83"></use>
                    <path d="M34,18.04 L32.586,16.626 L20.666,28.546 L15.414,23.292 L14,24.706 L20.666,31.374 L34,18.04 Z M24,2 C11.85,2 2,11.85 2,24 C2,36.15 11.85,46 24,46 C36.15,46 46,36.15 46,24 C46,11.85 36.15,2 24,2 L24,2 Z M24,4 C35.028,4 44,12.972 44,24 C44,35.028 35.028,44 24,44 C12.972,44 4,35.028 4,24 C4,12.972 12.972,4 24,4 L24,4 Z" id="Fill-1" fill="#FFFFFF"></path>
                </g>
                <g id="ic_common_timer" transform="translate(1056.000000, 288.000000)">
                    <use id="base" stroke-opacity="0.240658967" stroke="#FFFFFF" mask="url(#mask-86)" stroke-width="2" stroke-dasharray="8,8" xlink:href="#path-85"></use>
                    <path d="M32,0 L16,0 L16,2 L32,2 L32,0 Z M42,26 C42,16.074 33.926,8 24,8 C14.074,8 6,16.074 6,26 C6,35.926 14.074,44 24,44 C33.926,44 42,35.926 42,26 L42,26 Z M44,26 C44,37.046 35.046,46 24,46 C12.954,46 4,37.046 4,26 C4,14.954 12.954,6 24,6 C29.164,6 33.854,7.974 37.402,11.186 L37.402,11.184 L40.264,8.322 L41.678,9.736 L38.816,12.598 C38.814,12.598 38.814,12.598 38.814,12.596 C42.026,16.144 44,20.836 44,26 L44,26 Z M24,25.586 L32.192,33.778 L30.778,35.192 L22,26.414 L22,14 L24,14 L24,25.586 Z" id="Page-1" fill="#FFFFFF"></path>
                </g>
                <g id="ic_common_navigation" transform="translate(672.000000, 288.000000)">
                    <use id="base" stroke-opacity="0.240658967" stroke="#FFFFFF" mask="url(#mask-88)" stroke-width="2" stroke-dasharray="8,8" xlink:href="#path-87"></use>
                    <path d="M2,26 L22,26 L22,46 L42,6 L2,26 Z M37.528,10.472 L24,37.528 L24,26 L24,24 L22,24 L10.472,24 L37.528,10.472 Z" id="Page-1" fill="#FFFFFF"></path>
                </g>
                <g id="ic_common_pay" transform="translate(0.000000, 384.000000)">
                    <path d="M40,27 C40,36.389 32.389,44 23,44 C13.611,44 6,36.389 6,27 L6,21 C6,19.346 7.346,18 9,18 C10.654,18 12,19.346 12,21 L12,27 C12,27.552 12.448,28 13,28 C13.552,28 14,27.552 14,27 L14,21 C14,18.592 12.275,16.568 10,16.102 L10,7 C10,5.346 11.346,4 13,4 C14.654,4 16,5.346 16,7 L16,17 L16,22 L16,25 C16,27.75 18.25,30 21,30 L21,30 C22.638,30 24.087,29.191 25,27.964 C25.913,29.191 27.362,30 29,30 L29,30 C31.75,30 34,27.75 34,25 L34,21 L34,17 L34,11 C34,9.346 35.346,8 37,8 C38.654,8 40,9.346 40,11 L40,27 Z M18,22 L18,17 C18,15.346 19.346,14 21,14 C22.654,14 24,15.346 24,17 L24,25 C24,26.654 22.654,28 21,28 C19.346,28 18,26.654 18,25 L18,22 Z M26,17 C26,15.346 27.346,14 29,14 C30.654,14 32,15.346 32,17 L32,21 L32,25 C32,26.654 30.654,28 29,28 C27.346,28 26,26.654 26,25 L26,17 Z M37,6 L37,6 C34.25,6 32,8.25 32,11 L32,13.03 C31.161,12.393 30.128,12 29,12 L29,12 C27.362,12 25.913,12.809 25,14.036 C24.087,12.809 22.638,12 21,12 L21,12 C19.872,12 18.839,12.393 18,13.03 L18,7 C18,4.25 15.75,2 13,2 L13,2 C10.25,2 8,4.25 8,7 L8,16.102 C5.725,16.568 4,18.592 4,21 L4,27 C4,37.493 12.507,46 23,46 C33.493,46 42,37.493 42,27 L42,11 C42,8.25 39.75,6 37,6 L37,6 Z" id="Page-1" fill="#FFFFFF"></path>
                    <use id="base" stroke-opacity="0.240658967" stroke="#FFFFFF" mask="url(#mask-90)" stroke-width="2" stroke-dasharray="8,8" xlink:href="#path-89"></use>
                </g>
                <g id="ic_common_show" transform="translate(768.000000, 288.000000)">
                    <use id="base" stroke-opacity="0.240658967" stroke="#FFFFFF" mask="url(#mask-92)" stroke-width="2" stroke-dasharray="8,8" xlink:href="#path-91"></use>
                    <path d="M33,21 C32.448,21 32,21.448 32,22 C32,22.552 32.448,23 33,23 C33.552,23 34,22.552 34,22 C34,21.448 33.552,21 33,21 M44,29.658 L44,38 L34,38 C34,37.448 33.552,37 33,37 C32.448,37 32,37.448 32,38 L4,38 L4,29.658 C6.328,28.832 8,26.608 8,24 C8,21.392 6.328,19.168 4,18.342 L4,10 L32,10 C32,10.552 32.448,11 33,11 C33.552,11 34,10.552 34,10 L44,10 L44,18.342 C41.672,19.168 40,21.392 40,24 C40,26.608 41.672,28.832 44,29.658 M46,20 L46,8 L2,8 L2,20 C4.21,20 6,21.79 6,24 C6,26.21 4.21,28 2,28 L2,40 L46,40 L46,28 C43.79,28 42,26.21 42,24 C42,21.79 43.79,20 46,20 M33,13 C32.448,13 32,13.448 32,14 C32,14.552 32.448,15 33,15 C33.552,15 34,14.552 34,14 C34,13.448 33.552,13 33,13 M33,17 C32.448,17 32,17.448 32,18 C32,18.552 32.448,19 33,19 C33.552,19 34,18.552 34,18 C34,17.448 33.552,17 33,17 M33,25 C32.448,25 32,25.448 32,26 C32,26.552 32.448,27 33,27 C33.552,27 34,26.552 34,26 C34,25.448 33.552,25 33,25 M33,33 C32.448,33 32,33.448 32,34 C32,34.552 32.448,35 33,35 C33.552,35 34,34.552 34,34 C34,33.448 33.552,33 33,33 M33,29 C32.448,29 32,29.448 32,30 C32,30.552 32.448,31 33,31 C33.552,31 34,30.552 34,30 C34,29.448 33.552,29 33,29" id="Page-1" fill="#FFFFFF"></path>
                </g>
                <g id="ic_common_wallet" transform="translate(864.000000, 288.000000)">
                    <use id="base" stroke-opacity="0.240658967" stroke="#FFFFFF" mask="url(#mask-94)" stroke-width="2" stroke-dasharray="8,8" xlink:href="#path-93"></use>
                    <path d="M42,18 L32,18 L32,32 L42,32 L42,38 L6,38 L6,12 L42,12 L42,18 Z M34,30 L42,30 L42,20 L34,20 L34,30 Z M38,6.234 L38,10 L6,10 L38,6.234 Z M40,10 L40,4 L4,8.376 L4,40 L44,40 L44,10 L40,10 Z M38,27 C39.104,27 40,26.104 40,25 C40,23.896 39.104,23 38,23 C36.896,23 36,23.896 36,25 C36,26.104 36.896,27 38,27 L38,27 Z" id="Page-1" fill="#FFFFFF"></path>
                </g>
                <g id="ic_common_edit" transform="translate(192.000000, 96.000000)">
                    <use id="base" stroke-opacity="0.240658967" stroke="#FFFFFF" mask="url(#mask-96)" stroke-width="2" stroke-dasharray="8,8" xlink:href="#path-95"></use>
                    <path d="M38.344,4 L36.93,5.412 L42.586,11.07 L44,9.656 L38.344,4 Z M34.102,8.242 L39.756,13.898 L41.172,12.486 L35.514,6.828 L34.102,8.242 Z M31.272,11.07 L36.93,16.728 L38.344,15.312 L32.686,9.656 L31.272,11.07 Z M4,38.342 L4,44 L9.658,44 L35.514,18.14 L29.858,12.486 L4,38.342 Z M6,39.172 L29.858,15.312 L32.686,18.14 L8.828,42 L6,42 L6,39.172 Z M16,44 L43.998,44 L43.998,42 L16,42 L16,44 Z" id="Page-1" fill="#FFFFFF"></path>
                </g>
                <g id="ic_common_delete" transform="translate(96.000000, 96.000000)">
                    <use id="base" stroke-opacity="0.240658967" stroke="#FFFFFF" mask="url(#mask-98)" stroke-width="2" stroke-dasharray="8,8" xlink:href="#path-97"></use>
                    <path d="M20,4 L20,6 L4,6 L4,8 L8,8 L8,44 L40,44 L40,8 L44,8 L44,6 L28,6 L28,4 L20,4 Z M10,8 L38,8 L38,42 L10,42 L10,8 Z M28,33.998 L30,33.998 L30,15.998 L28,15.998 L28,33.998 Z M18,33.998 L20,33.998 L20,15.998 L18,15.998 L18,33.998 Z" id="Page-1" fill="#FFFFFF"></path>
                </g>
                <g id="ic_common_gene" transform="translate(192.000000, 384.000000)">
                    <use id="base" stroke-opacity="0.240658967" stroke="#FFFFFF" mask="url(#mask-100)" stroke-width="2" stroke-dasharray="8,8" xlink:href="#path-99"></use>
                    <path d="M33.5,4 C27.702,4 23,8.7 23,14.5 L23,23 L14.5,23 C8.702,23 4,27.7 4,33.5 C4,39.298 8.702,44 14.5,44 C20.298,44 25,39.298 25,33.5 L25,25 L33.5,25 C39.298,25 44,20.298 44,14.5 C44,8.7 39.298,4 33.5,4 M23,25 L23,33.5 C23,38.186 19.186,42 14.5,42 C9.814,42 6,38.186 6,33.5 C6,28.814 9.814,25 14.5,25 L23,25 M33.5,6 C38.186,6 42,9.814 42,14.5 C42,19.186 38.186,23 33.5,23 L25,23 L25,14.5 C25,9.814 28.814,6 33.5,6" id="Page-1" fill="#FFFFFF"></path>
                </g>
                <g id="ic_common_roam" transform="translate(384.000000, 384.000000)">
                    <use id="base" stroke-opacity="0.240658967" stroke="#FFFFFF" mask="url(#mask-102)" stroke-width="2" stroke-dasharray="8,8" xlink:href="#path-101"></use>
                    <path d="M22,27.5 L28,24 L22,20.5 L22,27.5 Z M34,24 C34,26.984 32.666,29.638 30.594,31.474 L31.938,33 C34.424,30.796 36,27.586 36,24 C36,20.414 34.424,17.202 31.938,15 L30.594,16.526 C32.666,18.362 34,21.016 34,24 L34,24 Z M8,24 C8,19.226 10.104,14.946 13.42,12.006 L12.092,10.5 C8.364,13.804 6,18.62 6,24 C6,29.38 8.364,34.196 12.092,37.5 L13.42,35.994 C10.104,33.054 8,28.774 8,24 L8,24 Z M14,24 C14,21.016 15.334,18.362 17.406,16.526 L16.062,15 C13.576,17.204 12,20.414 12,24 C12,27.586 13.576,30.796 16.062,33 L17.406,31.474 C15.334,29.638 14,26.984 14,24 L14,24 Z M46,24 C46,30.564 43.106,36.45 38.548,40.492 L39.878,42 C44.848,37.594 48,31.174 48,24 C48,16.826 44.848,10.406 39.878,6 L38.548,7.508 C43.106,11.55 46,17.436 46,24 L46,24 Z M2,24 C2,17.436 4.894,11.55 9.452,7.508 L8.122,6 C3.152,10.406 0,16.826 0,24 C0,31.174 3.152,37.594 8.122,42 L9.452,40.492 C4.894,36.45 2,30.564 2,24 L2,24 Z M34.58,12.006 L35.908,10.5 C39.636,13.804 42,18.62 42,24 C42,29.38 39.636,34.196 35.908,37.5 L34.58,35.994 C37.896,33.054 40,28.774 40,24 C40,19.226 37.896,14.946 34.58,12.006 L34.58,12.006 Z" id="Page-1" fill="#FFFFFF"></path>
                </g>
                <g id="ic_common_social" transform="translate(96.000000, 384.000000)">
                    <use id="base" stroke-opacity="0.240658967" stroke="#FFFFFF" mask="url(#mask-104)" stroke-width="2" stroke-dasharray="8,8" xlink:href="#path-103"></use>
                    <path d="M30,2 C21.164,2 14,9.164 14,18 C14,25.896 19.724,32.438 27.246,33.746 C27.5,33.13 27.686,32.482 27.812,31.812 C21.13,30.756 16,24.974 16,18 C16,10.28 22.28,4 30,4 C37.72,4 44,10.28 44,18 C44,22.754 41.612,26.958 37.978,29.488 C37.982,29.66 38,29.828 38,30 C38,30.642 37.964,31.274 37.904,31.9 C42.736,29.146 46,23.958 46,18 C46,9.164 38.836,2 30,2 M10,18 C10,17.358 10.04,16.724 10.1,16.098 C5.266,18.85 2,24.04 2,30 C2,38.836 9.164,46 18,46 C26.836,46 34,38.836 34,30 C34,22.106 28.278,15.564 20.76,14.254 C20.504,14.87 20.31,15.516 20.182,16.188 C26.866,17.242 32,23.024 32,30 C32,37.72 25.72,44 18,44 C10.28,44 4,37.72 4,30 C4,25.246 6.388,21.044 10.02,18.512 C10.016,18.34 10,18.172 10,18" id="Page-1" fill="#FFFFFF"></path>
                </g>
                <g id="ic_common_hq" transform="translate(288.000000, 384.000000)">
                    <use id="base" stroke-opacity="0.240658967" stroke="#FFFFFF" mask="url(#mask-106)" stroke-width="2" stroke-dasharray="8,8" xlink:href="#path-105"></use>
                    <path d="M2,40 L46,40 L46,8 L2,8 L2,40 Z M4,10 L44,10 L44,38 L4,38 L4,10 Z M26,18 L26,30 L30,30 L30,32 L32,32 L32,30 L36,30 L36,18 L26,18 Z M28,20 L34,20 L34,28 L32,28 L32,26 L30,26 L30,28 L28,28 L28,20 Z M20,18 L20,23 L14,23 L14,18 L12,18 L12,30 L14,30 L14,25 L20,25 L20,30 L22,30 L22,18 L20,18 Z" id="Page-1" fill="#FFFFFF"></path>
                </g>
            </g>
        </g>
    </g>
</svg>